Jump_normalized_Motion_pl11
version=1
nRows=25
nColumns=43
inDegrees=yes
endheader
time		pelvis_tilt		pelvis_list		pelvis_rotation		pelvis_tx		pelvis_ty		pelvis_tz		hip_flexion_r		hip_adduction_r		hip_rotation_r		knee_angle_r		ankle_angle_r		subtalar_angle_r		mtp_angle_r		hip_flexion_l		hip_adduction_l		hip_rotation_l		knee_angle_l		ankle_angle_l		subtalar_angle_l		mtp_angle_l		lumbar_extension		lumbar_bending		lumbar_rotation		neck_flexion		neck_lateral_bending		neck_rotation		arm_flex_r		arm_add_r		arm_rot_r		elbow_flex_r		pro_sup_r		wrist_flex_r		wrist_dev_r		hand_finger_flex_r		arm_flex_l		arm_add_l		arm_rot_l		elbow_flex_l		pro_sup_l		wrist_flex_l		wrist_dev_l		hand_finger_flex_l		
1.598333		0.632858		-25.079336		88.806363		-0.025113		1.667694		1.520990		79.573748		-11.595382		9.315714		-131.579987		18.721681		18.231868		17.816798		70.437198		-8.890066		2.335493		-131.358855		31.776390		9.703363		6.447454		-33.553501		-2.308978		-0.985155		30.453849		6.161915		-0.062418		118.307373		-9.622544		36.681255		57.274324		73.082768		-1.082674		-3.729753		-30.946724		128.381717		-6.213388		35.548037		45.062942		91.168725		-7.028480		-2.629503		-12.614345		
1.601717		0.981403		-24.793089		89.022381		-0.025012		1.669837		1.514833		78.505784		-11.576247		8.821105		-131.229991		17.910967		17.816600		18.279194		69.347838		-9.048672		2.553907		-130.983752		31.516336		9.646536		6.761201		-33.400703		-1.988756		-0.957155		29.820508		6.165900		0.035185		118.453777		-9.403753		36.584132		57.059397		73.141917		-0.711643		-4.446101		-31.031170		128.425486		-6.123651		35.264093		44.790245		91.759756		-6.890986		-3.338180		-12.662739		
1.605101		1.405155		-24.398572		89.255851		-0.024859		1.672124		1.508566		77.323954		-11.516926		8.198189		-130.854718		16.827615		17.132259		18.863117		68.167102		-9.282723		2.823627		-130.611175		31.225802		9.512954		7.190024		-33.344392		-1.600539		-0.947833		29.081238		6.209612		0.286419		118.552222		-8.979950		36.274422		56.587032		73.251143		-0.208642		-5.289933		-31.080450		128.372662		-5.991201		34.678298		44.470503		92.588522		-6.805338		-3.972059		-12.697676		
1.608485		1.573775		-24.272409		89.371707		-0.024702		1.673818		1.502202		76.551687		-11.499094		7.942305		-130.559082		15.863163		17.001001		18.987945		67.247609		-9.428134		2.858214		-130.239495		30.807493		9.504402		7.291848		-32.916343		-1.460924		-1.000855		28.060114		6.304121		0.291244		118.426040		-8.803297		36.057038		56.603732		73.245188		-0.061122		-5.566043		-31.107291		128.123703		-5.992279		34.411860		44.568679		92.848740		-6.815673		-4.185587		-12.675216		
1.611869		1.959948		-23.797425		89.581357		-0.024530		1.676158		1.495809		75.328939		-11.378955		7.323246		-130.177615		14.651167		16.022622		19.419562		66.010704		-9.664796		3.096205		-129.864714		30.430610		9.266500		7.665540		-32.943968		-1.085890		-1.054731		27.314861		6.322582		0.702616		118.505731		-8.215397		35.602528		55.954760		73.379130		0.503788		-6.324419		-31.104303		127.923378		-5.888289		33.570050		44.372804		93.939263		-6.842737		-4.653677		-12.459801		
1.615253		2.197522		-23.559694		89.706108		-0.024418		1.678057		1.489291		74.431099		-11.351934		6.951529		-129.818225		13.587029		15.625048		19.775142		65.017272		-9.817727		3.209308		-129.471102		29.877044		9.258398		7.943368		-32.660440		-0.877658		-1.111341		26.373168		6.445036		0.766779		118.401984		-7.991461		35.395157		55.803348		73.514596		0.835782		-6.716086		-31.187691		127.577144		-5.916572		33.002104		44.566906		94.725866		-6.858821		-4.945940		-12.204682		
1.618636		2.587589		-23.118739		89.914055		-0.024391		1.680258		1.482690		73.298393		-11.251692		6.331015		-129.392748		12.149099		14.638086		21.098110		63.868109		-10.030910		3.452599		-129.107754		29.243454		9.097724		8.943594		-32.615334		-0.485184		-1.130051		25.553931		6.434858		1.045380		118.351325		-7.534036		35.008467		55.256901		73.999874		1.466418		-7.372681		-31.628808		127.121140		-5.705169		31.603492		44.544652		96.948237		-6.974665		-5.235318		-11.273714		
1.622020		2.678155		-22.808095		89.924078		-0.024336		1.682133		1.476077		72.480207		-11.201766		6.097187		-129.053075		10.704684		13.910364		21.248657		62.778480		-10.127362		3.355377		-128.703385		28.618362		8.762634		9.099304		-32.400179		-0.409883		-1.204288		24.654258		6.573762		1.372985		118.190513		-7.264188		34.833188		55.066666		74.027615		1.447686		-7.670804		-31.708090		126.736327		-5.700050		31.103737		44.618047		97.170159		-7.287454		-5.584000		-11.178901		
1.625404		2.765829		-22.536918		89.937071		-0.024314		1.683956		1.469396		71.713025		-11.194723		5.849439		-128.694883		9.354497		13.340389		21.298433		61.763351		-10.197655		3.304576		-128.291242		27.895179		8.617485		9.166167		-32.143703		-0.338561		-1.220160		23.717072		6.718233		1.483897		117.997369		-7.191574		34.807813		55.043166		74.165368		1.464461		-8.002190		-31.687443		126.338881		-5.779241		30.784970		44.797802		97.394517		-7.486461		-5.926233		-11.093078		
1.628788		2.912721		-22.059200		89.949995		-0.024250		1.686043		1.462667		70.783181		-11.089837		5.479490		-128.305979		7.492494		11.997566		21.452378		60.552328		-10.320470		3.259737		-127.897339		27.123777		8.205231		9.354407		-32.117805		-0.216208		-1.189248		22.840218		6.762716		1.752621		117.863402		-6.975576		34.724795		54.701576		74.646015		1.373441		-8.622479		-31.570411		125.980162		-5.683031		30.216693		44.661716		97.893470		-7.859765		-6.387812		-10.942950		
1.632172		3.012868		-21.709416		89.948182		-0.024202		1.687879		1.455912		70.030069		-11.016581		5.208688		-127.923646		5.688578		10.987438		21.594672		59.501445		-10.405138		3.224128		-127.500186		26.263057		7.991862		9.507043		-31.927822		-0.141506		-1.138211		21.838619		6.843526		1.875954		117.637409		-6.929036		34.701572		54.581137		75.226743		1.307030		-9.083046		-31.387623		125.542394		-5.672486		29.820528		44.672885		98.241277		-8.144618		-6.782515		-10.855852		
1.635556		3.098654		-21.373297		89.907451		-0.024110		1.689657		1.449139		69.346828		-10.935694		4.919135		-127.522129		3.730920		9.733637		21.752137		58.479943		-10.499913		3.173882		-127.100951		25.358972		7.739099		9.687705		-31.721971		-0.092810		-1.061113		20.847876		6.910164		2.004830		117.392049		-6.898308		34.663574		54.462232		76.141179		1.238556		-9.584565		-31.084765		125.083830		-5.690695		29.465245		44.679111		98.582886		-8.410100		-7.197657		-10.847831		
1.638939		3.185704		-21.061718		89.864193		-0.023983		1.691358		1.442365		68.725376		-10.851080		4.618809		-127.101377		1.677202		8.432405		21.995199		57.516074		-10.591427		3.148790		-126.708224		24.398579		7.527355		9.938146		-31.487218		-0.044553		-0.981525		19.847527		6.968348		2.134669		117.108849		-6.859317		34.570060		54.334183		77.392382		1.184742		-10.100238		-30.652299		124.589113		-5.731731		29.116341		44.705516		98.964502		-8.640923		-7.586477		-10.905850		
1.642323		3.240042		-20.776591		89.804418		-0.023889		1.692899		1.435583		68.201919		-10.778176		4.394252		-126.686553		-0.497404		7.386360		22.046071		56.607905		-10.637227		3.124563		-126.331646		23.332175		7.369358		10.067554		-31.201715		-0.022856		-0.919023		18.771337		7.044207		2.258155		116.799703		-6.804449		34.512698		54.184631		78.469730		1.103290		-10.513009		-30.362450		124.044630		-5.751693		28.756333		44.712732		99.196305		-8.906719		-7.852206		-11.096510		
1.645707		3.304280		-20.502752		89.744379		-0.023748		1.694471		1.428807		67.703037		-10.677303		4.152926		-126.213181		-2.611030		6.223142		22.068343		55.745327		-10.671626		3.156279		-125.936136		22.213291		7.219142		10.221544		-30.931109		0.002917		-0.852101		17.723889		7.115652		2.362502		116.470700		-6.765730		34.440893		54.046058		79.905437		1.046593		-11.043783		-30.041129		123.486684		-5.829125		28.430623		44.795823		99.570349		-9.117576		-8.133847		-11.355104		
1.649091		3.369727		-20.241637		89.686792		-0.023638		1.695985		1.422021		67.248254		-10.605439		3.896101		-125.715947		-4.591918		5.207755		22.135489		54.923163		-10.693659		3.200744		-125.537384		21.042866		7.114075		10.432959		-30.652263		0.038538		-0.776796		16.712168		7.178201		2.459296		116.102269		-6.717669		34.325499		53.896495		81.525721		0.992866		-11.582127		-29.724475		122.900848		-5.908434		28.084908		44.890699		100.047726		-9.301048		-8.365630		-11.671430		
1.652475		3.367430		-20.015576		89.623912		-0.023607		1.697346		1.415169		66.846187		-10.613132		3.763828		-125.227794		-6.055730		5.008765		22.095715		54.167952		-10.622761		3.272182		-125.157944		19.781813		7.259131		10.433272		-30.333268		0.015372		-0.716422		15.667379		7.295599		2.445440		115.722506		-6.854705		34.475880		53.979216		82.137570		0.998180		-11.819082		-29.654063		122.297019		-6.065266		27.938712		45.103562		100.216180		-9.469617		-8.531030		-11.833444		
1.655859		3.412945		-19.714068		89.518831		-0.023480		1.698956		1.408459		66.451192		-10.497742		3.519268		-124.667773		-7.865377		3.811187		22.204808		53.366182		-10.634760		3.279269		-124.737110		18.415673		6.934564		10.685247		-30.141015		0.023365		-0.581147		14.722243		7.305588		2.521256		115.353196		-6.819690		34.452702		53.723515		84.125938		0.741761		-12.575429		-29.632159		121.695168		-6.098221		27.553288		45.154201		100.955450		-9.819211		-8.745943		-12.253132		
1.659242		3.390961		-19.465875		89.446999		-0.023436		1.700276		1.401694		66.131772		-10.509363		3.419893		-124.177108		-8.891441		3.865813		22.248092		52.671250		-10.539209		3.379869		-124.358802		16.983476		7.139346		10.660936		-29.878189		-0.013567		-0.486432		13.745318		7.393571		2.500285		114.953818		-6.974119		34.612157		53.763661		84.606371		0.705075		-12.743662		-29.673899		121.073212		-6.202062		27.370252		45.310887		101.092619		-10.055362		-8.843705		-12.417091		
1.662626		3.366417		-19.190745		89.343010		-0.023380		1.701702		1.395010		65.835057		-10.479678		3.302510		-123.678368		-9.758942		3.720658		22.452615		51.982717		-10.459351		3.434000		-123.963036		15.460441		7.127499		10.700087		-29.677575		-0.060548		-0.347835		12.830887		7.443331		2.484800		114.571415		-7.132470		34.799413		53.742512		85.448534		0.579647		-13.053627		-29.810610		120.425752		-6.296806		27.145443		45.483245		101.403666		-10.371517		-8.969321		-12.650126		
1.666010		3.300931		-18.896598		89.212797		-0.023293		1.703188		1.388460		65.555302		-10.427750		3.176900		-123.168691		-10.401388		3.228544		24.334997		51.308411		-10.350370		3.401738		-123.535276		13.819408		6.791824		11.677180		-29.540498		-0.134955		-0.250903		12.070812		7.382124		2.473001		114.131888		-7.048567		34.474709		53.405431		88.604834		0.687493		-13.822205		-30.386178		119.754701		-6.382226		26.540216		45.664471		102.949838		-10.367307		-9.063123		-13.099060		
1.669394		3.267766		-18.661115		89.085569		-0.023118		1.704465		1.381853		65.360855		-10.357079		3.034134		-122.731905		-10.515266		3.323459		24.550017		50.732134		-10.285270		3.470879		-123.127075		12.205878		6.841646		11.628808		-29.339233		-0.205492		-0.052203		11.271649		7.449817		2.407811		113.734775		-7.345277		34.765241		53.526495		88.875467		0.707255		-13.937672		-30.505590		119.057923		-6.555492		26.433403		45.971365		103.005101		-10.623906		-9.201049		-13.274540		
1.672778		3.088338		-18.382823		88.899379		-0.023066		1.705850		1.375477		65.189894		-10.332386		3.084637		-122.274501		-10.462760		3.520054		27.313911		50.158193		-10.093763		3.322588		-122.648417		10.159125		6.188828		12.686993		-29.238356		-0.382360		0.060494		10.587648		7.302642		2.288626		113.374469		-7.408159		34.741312		53.290808		91.323116		0.866980		-14.491922		-31.780251		118.382464		-6.687368		25.983934		46.211567		104.101033		-10.629341		-9.247567		-13.902068		
1.676162		3.107582		-18.191219		88.719581		-0.022637		1.707031		1.369043		65.048423		-10.105473		2.857423		-121.848554		-9.851495		3.583206		27.627583		49.714083		-10.143383		3.400763		-122.196610		8.330104		6.090005		12.644074		-29.037082		-0.451089		0.371193		9.879326		7.333551		2.168315		112.917316		-7.740186		34.961356		53.447028		91.605297		0.934432		-14.587620		-31.932900		117.650472		-6.845388		25.858787		46.523330		104.120635		-10.864089		-9.375180		-14.097267		
1.679545		3.089202		-18.008672		88.529193		-0.022217		1.708124		1.362717		64.931394		-9.877752		2.665573		-121.419057		-8.986200		3.781154		28.104829		49.326075		-10.160067		3.429299		-121.712564		6.151440		5.715895		12.653705		-28.845377		-0.541788		0.680706		9.238560		7.263736		1.971768		112.497168		-8.033966		35.186729		53.513403		92.337268		0.844093		-14.705833		-32.252326		116.930891		-6.965728		25.693215		46.754821		104.286812		-11.090786		-9.465775		-14.359605		
